<?xml version="1.0" encoding="UTF-8"?>
<!DOCTYPE svg PUBLIC "-//W3C//DTD SVG 1.1//EN" "http://www.w3.org/Graphics/SVG/1.1/DTD/svg11.dtd">
<!-- Creator: CorelDRAW 2021 (64-Bit) -->
<svg xmlns="http://www.w3.org/2000/svg" xml:space="preserve" width="670px" height="670px" version="1.1" style="shape-rendering:geometricPrecision; text-rendering:geometricPrecision; image-rendering:optimizeQuality; fill-rule:evenodd; clip-rule:evenodd"
viewBox="0 0 748.15 748.15"
 xmlns:xlink="http://www.w3.org/1999/xlink"
 xmlns:xodm="http://www.corel.com/coreldraw/odm/2003">
 <defs>
  <style type="text/css">
   <![CDATA[
    .fil0 {fill:none}
    .fil5 {fill:#999999}
    .fil7 {fill:#CCCCCC}
    .fil6 {fill:#FF6600}
    .fil4 {fill:#FFCC00}
    .fil1 {fill:gray;fill-rule:nonzero}
    .fil3 {fill:#B3B3B3;fill-rule:nonzero}
    .fil2 {fill:#FF6600;fill-rule:nonzero}
   ]]>
  </style>
 </defs>
 <g id="Layer_x0020_1">
  <metadata id="CorelCorpID_0Corel-Layer"/>
  <rect class="fil0" width="748.15" height="748.15"/>
  <g id="_2211033214304">
   <path class="fil1" d="M218.87 518.06l-5.87 -8.25 -25.56 18.18 -2.38 -3.35 25.56 -18.18 -5.86 -8.25 3.02 -2.15 14.11 19.85 -3.02 2.15zm-3.8 41.85l-2.76 -2.9 2.87 -2.74 -0.07 -0.07c-3.35,0.9 -6.24,0.08 -8.64,-2.45 -4.12,-4.32 -3.61,-8.93 1.54,-13.84l10.85 -10.34 2.76 2.9 -10.39 9.91c-3.83,3.65 -4.35,6.94 -1.56,9.87 1.35,1.41 2.98,2.07 4.89,1.98 1.92,-0.08 3.72,-0.92 5.42,-2.54l10.46 -9.97 2.77 2.9 -18.14 17.29zm34.64 1.46c-0.22,-0.86 -0.85,-1.69 -1.89,-2.51 -1.35,-1.06 -2.98,-1.31 -4.88,-0.76 -1.9,0.56 -3.72,1.94 -5.44,4.13l-7.89 10.04 -3.15 -2.48 15.48 -19.7 3.15 2.48 -3.19 4.06 0.08 0.06c1.53,-1.04 3.08,-1.58 4.61,-1.62 1.54,-0.06 2.88,0.37 4.02,1.26 0.83,0.65 1.38,1.24 1.68,1.76l-2.58 3.28zm13.78 34.19l-4.72 -3.03 -2.83 -16.11 -0.08 -0.05 -6.5 10.13 -3.38 -2.16 20.02 -31.22 3.37 2.17 -12.68 19.78 0.08 0.05 15.06 -3.98 4.42 2.84 -16.32 3.89 3.56 17.69zm33.19 2.44l-16.12 -7.29c-1.09,2.58 -1.3,4.86 -0.62,6.83 0.67,1.98 2.16,3.49 4.44,4.52 2.57,1.16 5.32,1.38 8.24,0.65l-1.55 3.42c-2.66,0.56 -5.64,0.09 -8.94,-1.4 -3.22,-1.46 -5.29,-3.64 -6.19,-6.55 -0.9,-2.91 -0.5,-6.25 1.2,-10.01 1.61,-3.56 3.92,-5.99 6.95,-7.33 3.03,-1.32 6.03,-1.31 9.02,0.04 2.99,1.35 4.86,3.36 5.63,6.03 0.76,2.67 0.36,5.73 -1.2,9.17l-0.86 1.92zm-2.35 -4.8c0.95,-2.12 1.18,-4.01 0.71,-5.64 -0.47,-1.63 -1.6,-2.85 -3.38,-3.65 -1.72,-0.78 -3.46,-0.83 -5.23,-0.13 -1.76,0.7 -3.24,1.97 -4.42,3.85l12.32 5.57zm36.04 0.63l-19.03 24.79c-3.4,4.43 -6.88,6.13 -10.45,5.12 -1,-0.29 -1.81,-0.63 -2.43,-1.02l0.98 -3.45c0.75,0.52 1.47,0.88 2.16,1.08 1.94,0.55 3.73,-0.2 5.36,-2.25l3.22 -4.02 -2.56 -26.72 4.29 1.22 1.23 20.39c0.01,0.26 0,0.92 -0.03,1.98l0.14 0.04c0.19,-0.36 0.51,-0.91 0.99,-1.66l12.13 -16.64 4 1.14z"/>
   <path id="_1" class="fil2" d="M364.68 623.78l-7.85 -0.99 1.8 -14.17 -14.42 -1.83 -1.8 14.16 -7.85 -0.99 4.42 -34.8 7.85 1 -1.76 13.87 14.42 1.83 1.76 -13.87 7.85 1 -4.42 34.79zm26.29 -0.69c-4.16,0.32 -7.52,-0.6 -10.08,-2.75 -2.56,-2.15 -3.99,-5.22 -4.3,-9.22 -0.31,-4.13 0.68,-7.46 2.97,-9.98 2.3,-2.52 5.56,-3.94 9.76,-4.26 4.15,-0.31 7.49,0.61 10.03,2.76 2.53,2.15 3.95,5.14 4.24,8.98 0.32,4.15 -0.65,7.51 -2.9,10.11 -2.25,2.59 -5.49,4.04 -9.72,4.36zm-1.33 -20.3c-1.82,0.14 -3.19,0.87 -4.1,2.2 -0.91,1.33 -1.28,3.14 -1.11,5.43 0.37,4.8 2.48,7.05 6.35,6.76 3.69,-0.28 5.35,-2.89 4.98,-7.81 -0.36,-4.67 -2.4,-6.86 -6.12,-6.58zm49.99 11.29l-7.52 1.74 -0.86 -3.73 -0.12 0.03c-1.2,3.3 -3.35,5.32 -6.46,6.03 -5.66,1.31 -9.28,-1.46 -10.86,-8.31l-3.4 -14.73 7.52 -1.73 3.25 14.06c0.79,3.45 2.56,4.86 5.28,4.23 1.35,-0.31 2.32,-1.03 2.92,-2.16 0.58,-1.13 0.69,-2.51 0.32,-4.13l-3.22 -13.97 7.52 -1.74 5.63 24.41zm10.98 -4.51l-2.3 -5.83c1.46,0.24 2.85,0.31 4.16,0.18 1.31,-0.11 2.5,-0.38 3.54,-0.79 1.28,-0.51 2.22,-1.07 2.82,-1.71 0.6,-0.64 0.76,-1.32 0.48,-2.03 -0.19,-0.46 -0.5,-0.77 -0.95,-0.94 -0.45,-0.17 -1,-0.27 -1.61,-0.29 -0.61,-0.02 -1.26,0 -1.95,0.06 -0.7,0.07 -1.39,0.1 -2.05,0.1 -1.06,0.02 -2.02,-0.04 -2.89,-0.16 -0.86,-0.12 -1.64,-0.35 -2.33,-0.7 -0.68,-0.34 -1.29,-0.81 -1.82,-1.41 -0.53,-0.6 -0.98,-1.38 -1.35,-2.33 -0.52,-1.31 -0.67,-2.54 -0.48,-3.7 0.2,-1.17 0.66,-2.24 1.37,-3.21 0.72,-0.97 1.63,-1.84 2.74,-2.6 1.11,-0.76 2.33,-1.41 3.65,-1.93 1.04,-0.4 2.12,-0.74 3.25,-1 1.12,-0.26 2.26,-0.44 3.42,-0.55l2.18 5.55c-1.12,-0.17 -2.25,-0.18 -3.4,-0.03 -1.14,0.14 -2.22,0.42 -3.22,0.81 -0.48,0.19 -0.9,0.4 -1.29,0.65 -0.38,0.25 -0.7,0.51 -0.96,0.8 -0.26,0.28 -0.42,0.59 -0.51,0.91 -0.08,0.32 -0.06,0.65 0.06,0.97 0.17,0.42 0.45,0.73 0.85,0.92 0.39,0.2 0.85,0.32 1.38,0.36 0.52,0.05 1.09,0.06 1.7,0.01 0.61,-0.03 1.21,-0.06 1.81,-0.09 1.09,-0.04 2.1,-0.02 3.03,0.06 0.93,0.09 1.77,0.3 2.54,0.61 0.76,0.31 1.43,0.76 2.01,1.36 0.58,0.6 1.06,1.39 1.45,2.37 0.54,1.38 0.7,2.68 0.49,3.89 -0.21,1.22 -0.7,2.33 -1.45,3.33 -0.76,1.01 -1.72,1.91 -2.91,2.7 -1.18,0.79 -2.48,1.46 -3.87,2.01 -2.57,1.02 -5.1,1.57 -7.59,1.65zm42.84 -31.57l-14.16 8.15c2.04,3.02 4.93,3.46 8.68,1.3 2.38,-1.37 4.16,-3.14 5.32,-5.31l2.77 4.82c-1.39,2.23 -3.7,4.27 -6.9,6.11 -3.51,2.02 -6.79,2.61 -9.85,1.78 -3.05,-0.83 -5.57,-2.98 -7.57,-6.46 -2.07,-3.6 -2.66,-7.06 -1.78,-10.37 0.88,-3.31 2.84,-5.83 5.9,-7.59 3.17,-1.82 6.16,-2.29 8.97,-1.41 2.81,0.89 5.14,2.94 7,6.17l1.62 2.81zm-8.58 -0.55c-1.79,-3.1 -3.94,-3.93 -6.45,-2.48 -1.08,0.62 -1.75,1.59 -2.02,2.93 -0.28,1.34 -0.12,2.72 0.47,4.14l8 -4.59z"/>
   <path id="_2" class="fil3" d="M528.44 564.49l-4.49 3.53 -20.57 -4.24c-0.77,-0.17 -1.27,-0.29 -1.49,-0.39l-0.08 0.06 10.68 13.58 -3.23 2.54 -21.68 -27.58 3.23 -2.54 10.19 12.96 0.08 -0.06c-0.05,-0.42 -0.05,-0.93 -0.01,-1.51l0.85 -20.12 4.02 -3.16 -1.43 22.53 23.93 4.4zm13.35 -30.43l-12.2 12.81c2.06,1.88 4.15,2.83 6.24,2.84 2.09,0.02 4,-0.88 5.73,-2.7 1.95,-2.04 3.06,-4.56 3.34,-7.56l2.72 2.59c-0.36,2.7 -1.79,5.36 -4.28,7.98 -2.44,2.56 -5.18,3.79 -8.23,3.67 -3.04,-0.11 -6.06,-1.59 -9.05,-4.44 -2.83,-2.69 -4.36,-5.68 -4.62,-8.98 -0.25,-3.3 0.75,-6.13 3.02,-8.5 2.26,-2.37 4.78,-3.48 7.55,-3.31 2.77,0.16 5.52,1.55 8.26,4.15l1.52 1.45zm-5.3 0.63c-1.69,-1.59 -3.39,-2.44 -5.09,-2.53 -1.69,-0.1 -3.22,0.56 -4.56,1.98 -1.31,1.36 -1.93,3 -1.85,4.89 0.07,1.9 0.79,3.71 2.16,5.45l9.34 -9.79zm12.72 -33.77l17 26.24c3.03,4.67 3.47,8.52 1.32,11.55 -0.61,0.85 -1.2,1.5 -1.77,1.95l-2.92 -2.08c0.73,-0.53 1.32,-1.09 1.73,-1.67 1.17,-1.65 1.06,-3.59 -0.32,-5.81l-2.7 -4.38 -26.04 -6.53 2.58 -3.63 19.62 5.66c0.26,0.08 0.87,0.31 1.86,0.7l0.08 -0.13c-0.27,-0.29 -0.68,-0.78 -1.23,-1.48l-11.62 -17 2.41 -3.39z"/>
   <g>
    <polygon class="fil4" points="254.74,328 327.54,400.79 254.74,473.58 "/>
    <polygon class="fil5" points="327.54,400.79 254.74,328 327.54,255.2 "/>
    <polygon class="fil5" points="327.54,546.38 254.74,473.58 327.54,400.79 "/>
    <polygon class="fil6" points="493.4,341.78 420.61,414.57 493.4,487.37 "/>
    <polygon class="fil7" points="420.61,414.57 493.4,341.78 420.61,268.99 "/>
    <polygon class="fil7" points="420.61,560.16 493.4,487.37 420.61,414.57 "/>
    <polygon class="fil4" points="347.82,196.19 420.61,268.99 347.82,341.78 "/>
    <polygon class="fil7" points="420.61,268.99 347.82,196.19 420.61,123.4 "/>
    <polygon class="fil6" points="420.61,414.57 347.82,341.78 420.61,268.99 "/>
    <polygon class="fil4" points="288.38,187.94 324.78,224.33 288.38,260.73 "/>
    <polygon class="fil6" points="392.81,415.7 354.33,454.17 392.81,492.65 "/>
   </g>
   <circle class="fil0" cx="374.07" cy="392.52" r="230.65"/>
  </g>
 </g>
</svg>
