<?xml version="1.0" encoding="UTF-8"?>
<!DOCTYPE svg PUBLIC "-//W3C//DTD SVG 1.1//EN" "http://www.w3.org/Graphics/SVG/1.1/DTD/svg11.dtd">
<!-- Creator: CorelDRAW 2021 (64-Bit) -->
<svg xmlns="http://www.w3.org/2000/svg" xml:space="preserve" width="302px" height="156px" version="1.1" style="shape-rendering:geometricPrecision; text-rendering:geometricPrecision; image-rendering:optimizeQuality; fill-rule:evenodd; clip-rule:evenodd"
viewBox="0 0 41.93 21.72"
 xmlns:xlink="http://www.w3.org/1999/xlink"
 xmlns:xodm="http://www.corel.com/coreldraw/odm/2003">
 <defs>
  <style type="text/css">
   <![CDATA[
    .fil0 {fill:none}
    .fil4 {fill:#999999}
    .fil6 {fill:#CCCCCC}
    .fil5 {fill:#FF6600}
    .fil3 {fill:#FFCC00}
    .fil2 {fill:#999999;fill-rule:nonzero}
    .fil1 {fill:#FF6600;fill-rule:nonzero}
   ]]>
  </style>
 </defs>
 <g id="Layer_x0020_1">
  <metadata id="CorelCorpID_0Corel-Layer"/>
  <rect class="fil0" width="41.93" height="21.72"/>
  <polygon class="fil1" points="6.14,13.99 5.21,13.99 5.21,16.85 4.84,16.85 4.84,13.99 3.92,13.99 3.92,13.65 6.14,13.65 "/>
  <path id="_1" class="fil1" d="M8.43 16.85l-0.36 0 0 -0.36 -0.01 0c-0.15,0.28 -0.39,0.42 -0.71,0.42 -0.54,0 -0.81,-0.33 -0.81,-0.98l0 -1.36 0.36 0 0 1.31c0,0.48 0.19,0.72 0.55,0.72 0.18,0 0.33,-0.07 0.44,-0.2 0.12,-0.13 0.18,-0.3 0.18,-0.51l0 -1.32 0.36 0 0 2.28z"/>
  <path id="_2" class="fil1" d="M10.36 14.94c-0.06,-0.05 -0.15,-0.08 -0.27,-0.08 -0.16,0 -0.29,0.08 -0.4,0.23 -0.1,0.14 -0.15,0.34 -0.15,0.6l0 1.16 -0.37 0 0 -2.28 0.37 0 0 0.47 0.01 0c0.05,-0.16 0.13,-0.29 0.24,-0.38 0.1,-0.09 0.22,-0.13 0.35,-0.13 0.1,0 0.17,0.01 0.22,0.03l0 0.38z"/>
  <polygon id="_3" class="fil1" points="12.65,16.85 12.14,16.85 11.13,15.75 11.12,15.75 11.12,16.85 10.76,16.85 10.76,13.47 11.12,13.47 11.12,15.61 11.13,15.61 12.09,14.57 12.57,14.57 11.51,15.67 "/>
  <path id="_4" class="fil1" d="M14.86 15.8l-1.61 0c0.01,0.26 0.08,0.45 0.21,0.59 0.13,0.14 0.31,0.21 0.54,0.21 0.25,0 0.49,-0.09 0.7,-0.26l0 0.35c-0.2,0.14 -0.46,0.22 -0.79,0.22 -0.32,0 -0.58,-0.11 -0.76,-0.32 -0.18,-0.2 -0.28,-0.5 -0.28,-0.87 0,-0.36 0.1,-0.65 0.31,-0.87 0.2,-0.23 0.45,-0.34 0.75,-0.34 0.29,0 0.53,0.1 0.69,0.29 0.16,0.2 0.24,0.46 0.24,0.81l0 0.19zm-0.37 -0.31c0,-0.21 -0.05,-0.38 -0.15,-0.49 -0.1,-0.12 -0.24,-0.18 -0.42,-0.18 -0.17,0 -0.32,0.06 -0.44,0.18 -0.12,0.13 -0.19,0.29 -0.22,0.49l1.23 0z"/>
  <path id="_5" class="fil1" d="M17.23 14.57l-1.05 2.65c-0.18,0.47 -0.45,0.7 -0.79,0.7 -0.09,0 -0.17,-0.01 -0.23,-0.03l0 -0.32c0.07,0.03 0.15,0.04 0.21,0.04 0.19,0 0.32,-0.11 0.42,-0.33l0.18 -0.43 -0.89 -2.28 0.41 0 0.61 1.75c0.01,0.03 0.02,0.08 0.05,0.18l0.01 0c0.01,-0.04 0.02,-0.09 0.05,-0.17l0.65 -1.76 0.37 0z"/>
  <path id="_6" class="fil1" d="M33.43 16.85l-0.52 0 -1.23 -1.46c-0.05,-0.06 -0.08,-0.09 -0.09,-0.11l-0.01 0 0 1.57 -0.37 0 0 -3.2 0.37 0 0 1.51 0.01 0c0.02,-0.04 0.05,-0.07 0.09,-0.11l1.19 -1.4 0.47 0 -1.38 1.54 1.47 1.66z"/>
  <path id="_7" class="fil1" d="M35.64 15.8l-1.61 0c0.01,0.26 0.07,0.45 0.2,0.59 0.14,0.14 0.32,0.21 0.54,0.21 0.26,0 0.5,-0.09 0.71,-0.26l0 0.35c-0.2,0.14 -0.46,0.22 -0.79,0.22 -0.33,0 -0.58,-0.11 -0.76,-0.32 -0.19,-0.2 -0.28,-0.5 -0.28,-0.87 0,-0.36 0.1,-0.65 0.3,-0.87 0.2,-0.23 0.45,-0.34 0.75,-0.34 0.3,0 0.53,0.1 0.7,0.29 0.16,0.2 0.24,0.46 0.24,0.81l0 0.19zm-0.37 -0.31c0,-0.21 -0.06,-0.38 -0.16,-0.49 -0.1,-0.12 -0.24,-0.18 -0.41,-0.18 -0.18,0 -0.32,0.06 -0.44,0.18 -0.12,0.13 -0.2,0.29 -0.23,0.49l1.24 0z"/>
  <path id="_8" class="fil1" d="M38.01 14.57l-1.05 2.65c-0.19,0.47 -0.45,0.7 -0.79,0.7 -0.09,0 -0.17,-0.01 -0.24,-0.03l0 -0.32c0.08,0.03 0.15,0.04 0.22,0.04 0.18,0 0.32,-0.11 0.41,-0.33l0.19 -0.43 -0.89 -2.28 0.4 0 0.62 1.75c0.01,0.03 0.02,0.08 0.04,0.18l0.02 0c0.01,-0.04 0.02,-0.09 0.04,-0.17l0.65 -1.76 0.38 0z"/>
  <polygon id="_9" class="fil1" points="20.39,16.85 19.67,16.85 19.67,15.55 18.34,15.55 18.34,16.85 17.62,16.85 17.62,13.65 18.34,13.65 18.34,14.93 19.67,14.93 19.67,13.65 20.39,13.65 "/>
  <path id="_10" class="fil1" d="M22.14 16.91c-0.38,0 -0.68,-0.11 -0.9,-0.32 -0.22,-0.22 -0.33,-0.51 -0.33,-0.87 0,-0.38 0.12,-0.67 0.34,-0.89 0.23,-0.21 0.53,-0.32 0.92,-0.32 0.38,0 0.68,0.11 0.89,0.32 0.22,0.22 0.32,0.5 0.32,0.85 0,0.38 -0.11,0.68 -0.33,0.9 -0.22,0.22 -0.53,0.33 -0.91,0.33zm0.02 -1.86c-0.17,0 -0.3,0.06 -0.39,0.17 -0.09,0.12 -0.14,0.28 -0.14,0.49 0,0.44 0.18,0.66 0.53,0.66 0.34,0 0.51,-0.23 0.51,-0.68 0,-0.43 -0.17,-0.64 -0.51,-0.64z"/>
  <path id="_11" class="fil1" d="M26.01 16.85l-0.7 0 0 -0.35 -0.01 0c-0.18,0.27 -0.41,0.41 -0.7,0.41 -0.53,0 -0.79,-0.32 -0.79,-0.96l0 -1.38 0.7 0 0 1.31c0,0.33 0.13,0.49 0.38,0.49 0.13,0 0.23,-0.05 0.31,-0.14 0.07,-0.08 0.11,-0.2 0.11,-0.36l0 -1.3 0.7 0 0 2.28z"/>
  <path id="_12" class="fil1" d="M26.45 16.79l0 -0.57c0.12,0.07 0.24,0.12 0.35,0.16 0.12,0.03 0.23,0.05 0.33,0.05 0.12,0 0.22,-0.02 0.29,-0.05 0.08,-0.04 0.11,-0.09 0.11,-0.16 0,-0.05 -0.01,-0.08 -0.05,-0.11 -0.03,-0.03 -0.07,-0.06 -0.12,-0.08 -0.05,-0.02 -0.11,-0.04 -0.17,-0.06 -0.06,-0.02 -0.12,-0.04 -0.18,-0.06 -0.09,-0.03 -0.17,-0.07 -0.24,-0.11 -0.07,-0.04 -0.12,-0.09 -0.17,-0.14 -0.05,-0.05 -0.08,-0.11 -0.11,-0.18 -0.02,-0.07 -0.04,-0.15 -0.04,-0.24 0,-0.13 0.03,-0.24 0.09,-0.33 0.05,-0.09 0.13,-0.17 0.22,-0.23 0.09,-0.06 0.2,-0.1 0.32,-0.13 0.12,-0.02 0.25,-0.04 0.37,-0.04 0.11,0 0.21,0.01 0.31,0.03 0.11,0.01 0.21,0.03 0.31,0.06l0 0.55c-0.09,-0.05 -0.18,-0.09 -0.29,-0.12 -0.1,-0.02 -0.2,-0.04 -0.3,-0.04 -0.04,0 -0.09,0.01 -0.13,0.01 -0.04,0.01 -0.07,0.02 -0.11,0.04 -0.03,0.02 -0.05,0.04 -0.07,0.06 -0.02,0.02 -0.03,0.05 -0.03,0.08 0,0.05 0.02,0.08 0.04,0.11 0.03,0.03 0.07,0.06 0.11,0.08 0.04,0.02 0.09,0.04 0.14,0.06 0.06,0.01 0.11,0.03 0.16,0.05 0.09,0.03 0.18,0.07 0.25,0.1 0.08,0.04 0.14,0.09 0.2,0.14 0.05,0.05 0.1,0.11 0.12,0.18 0.03,0.07 0.05,0.16 0.05,0.25 0,0.14 -0.03,0.25 -0.09,0.35 -0.06,0.1 -0.14,0.17 -0.23,0.23 -0.1,0.06 -0.21,0.11 -0.34,0.13 -0.13,0.03 -0.26,0.05 -0.4,0.05 -0.25,0 -0.48,-0.04 -0.7,-0.12z"/>
  <path id="_13" class="fil1" d="M30.66 15.91l-1.48 0c0.02,0.33 0.23,0.5 0.62,0.5 0.25,0 0.47,-0.06 0.66,-0.18l0 0.51c-0.21,0.11 -0.48,0.17 -0.82,0.17 -0.37,0 -0.65,-0.11 -0.86,-0.31 -0.2,-0.2 -0.3,-0.49 -0.3,-0.85 0,-0.38 0.11,-0.68 0.33,-0.91 0.22,-0.22 0.49,-0.33 0.81,-0.33 0.33,0 0.59,0.1 0.77,0.3 0.18,0.2 0.27,0.46 0.27,0.8l0 0.3zm-0.65 -0.43c0,-0.33 -0.13,-0.49 -0.39,-0.49 -0.12,0 -0.22,0.04 -0.3,0.14 -0.08,0.09 -0.13,0.21 -0.15,0.35l0.84 0z"/>
  <polygon class="fil2" points="5.67,19.19 5.18,19.19 5.2,19.08 5.69,19.08 "/>
  <path id="_1_0" class="fil2" d="M7.04 19.66c-0.18,0 -0.31,-0.06 -0.4,-0.18 -0.08,-0.12 -0.11,-0.27 -0.08,-0.46 0.04,-0.21 0.12,-0.37 0.25,-0.49 0.14,-0.12 0.3,-0.18 0.48,-0.18 0.18,0 0.31,0.06 0.39,0.18 0.09,0.11 0.12,0.27 0.08,0.46 -0.03,0.2 -0.12,0.37 -0.25,0.49 -0.13,0.12 -0.28,0.18 -0.47,0.18zm0.22 -1.18c-0.13,0 -0.25,0.05 -0.35,0.15 -0.1,0.09 -0.16,0.22 -0.19,0.37 -0.03,0.16 -0.01,0.29 0.06,0.38 0.06,0.1 0.16,0.14 0.29,0.14 0.14,0 0.25,-0.04 0.35,-0.13 0.09,-0.09 0.16,-0.22 0.18,-0.38 0.03,-0.17 0.02,-0.3 -0.04,-0.39 -0.06,-0.09 -0.16,-0.14 -0.3,-0.14z"/>
  <path id="_2_1" class="fil2" d="M8.8 19.16l-0.08 0.47 -0.15 0 0.22 -1.26 0.35 0c0.13,0 0.23,0.03 0.3,0.1 0.06,0.07 0.08,0.16 0.06,0.28 -0.02,0.12 -0.08,0.22 -0.18,0.29 -0.09,0.08 -0.21,0.12 -0.35,0.12l-0.17 0zm0.12 -0.65l-0.09 0.51 0.15 0c0.1,0 0.19,-0.02 0.25,-0.07 0.06,-0.04 0.1,-0.11 0.11,-0.19 0.03,-0.17 -0.05,-0.25 -0.25,-0.25l-0.17 0z"/>
  <path id="_3_2" class="fil2" d="M10.48 19.16l-0.08 0.47 -0.15 0 0.22 -1.26 0.35 0c0.14,0 0.24,0.03 0.3,0.1 0.06,0.07 0.08,0.16 0.06,0.28 -0.02,0.12 -0.08,0.22 -0.17,0.29 -0.1,0.08 -0.22,0.12 -0.36,0.12l-0.17 0zm0.12 -0.65l-0.09 0.51 0.15 0c0.11,0 0.19,-0.02 0.25,-0.07 0.06,-0.04 0.1,-0.11 0.11,-0.19 0.03,-0.17 -0.05,-0.25 -0.25,-0.25l-0.17 0z"/>
  <path id="_4_3" class="fil2" d="M12.44 19.66c-0.18,0 -0.31,-0.06 -0.4,-0.18 -0.09,-0.12 -0.11,-0.27 -0.08,-0.46 0.04,-0.21 0.12,-0.37 0.25,-0.49 0.13,-0.12 0.29,-0.18 0.48,-0.18 0.18,0 0.31,0.06 0.39,0.18 0.09,0.11 0.11,0.27 0.08,0.46 -0.04,0.2 -0.12,0.37 -0.25,0.49 -0.13,0.12 -0.29,0.18 -0.47,0.18zm0.22 -1.18c-0.14,0 -0.25,0.05 -0.35,0.15 -0.1,0.09 -0.16,0.22 -0.19,0.37 -0.03,0.16 -0.01,0.29 0.05,0.38 0.07,0.1 0.16,0.14 0.29,0.14 0.14,0 0.26,-0.04 0.36,-0.13 0.09,-0.09 0.15,-0.22 0.18,-0.38 0.03,-0.17 0.02,-0.3 -0.05,-0.39 -0.06,-0.09 -0.16,-0.14 -0.29,-0.14z"/>
  <path id="_5_4" class="fil2" d="M14.87 19.63l-0.17 0 -0.15 -0.35c-0.02,-0.03 -0.03,-0.06 -0.04,-0.08 -0.02,-0.03 -0.03,-0.05 -0.05,-0.06 -0.02,-0.02 -0.04,-0.03 -0.06,-0.03 -0.02,-0.01 -0.04,-0.01 -0.07,-0.01l-0.12 0 -0.09 0.53 -0.15 0 0.22 -1.26 0.38 0c0.05,0 0.1,0.01 0.15,0.02 0.04,0.02 0.08,0.04 0.11,0.07 0.03,0.02 0.05,0.06 0.06,0.1 0.01,0.04 0.01,0.09 0,0.15 -0.01,0.04 -0.02,0.08 -0.04,0.12 -0.02,0.04 -0.04,0.07 -0.07,0.1 -0.03,0.03 -0.07,0.05 -0.1,0.07 -0.04,0.02 -0.08,0.04 -0.13,0.05l0 0c0.02,0.01 0.04,0.02 0.05,0.03 0.01,0.02 0.03,0.03 0.04,0.05 0.01,0.01 0.02,0.03 0.03,0.05 0.01,0.02 0.02,0.05 0.03,0.07l0.17 0.38zm-0.56 -1.12l-0.08 0.45 0.2 0c0.04,0 0.08,0 0.11,-0.01 0.03,-0.01 0.06,-0.03 0.09,-0.05 0.03,-0.02 0.05,-0.05 0.07,-0.08 0.02,-0.03 0.03,-0.06 0.03,-0.1 0.02,-0.07 0,-0.12 -0.03,-0.16 -0.04,-0.04 -0.1,-0.05 -0.18,-0.05l-0.21 0z"/>
  <polygon id="_6_5" class="fil2" points="16.66,18.51 16.3,18.51 16.1,19.63 15.95,19.63 16.15,18.51 15.79,18.51 15.81,18.37 16.69,18.37 "/>
  <path id="_7_6" class="fil2" d="M18.35 19.12c-0.06,0.36 -0.25,0.54 -0.57,0.54 -0.31,0 -0.43,-0.17 -0.37,-0.52l0.13 -0.77 0.15 0 -0.13 0.76c-0.05,0.26 0.04,0.39 0.26,0.39 0.21,0 0.33,-0.12 0.38,-0.37l0.13 -0.78 0.15 0 -0.13 0.75z"/>
  <path id="_8_7" class="fil2" d="M20.27 19.63l-0.19 0 -0.47 -1c-0.01,-0.03 -0.02,-0.05 -0.03,-0.08l0 0c0,0.03 -0.01,0.08 -0.02,0.17l-0.16 0.91 -0.15 0 0.22 -1.26 0.19 0 0.46 0.99c0.02,0.04 0.03,0.07 0.04,0.09l0 0c0,-0.04 0.01,-0.1 0.02,-0.19l0.16 -0.89 0.15 0 -0.22 1.26z"/>
  <polygon id="_9_8" class="fil2" points="21.76,18.37 21.74,18.5 21.62,18.5 21.44,19.51 21.56,19.51 21.54,19.63 21.15,19.63 21.17,19.51 21.29,19.51 21.47,18.5 21.35,18.5 21.37,18.37 "/>
  <polygon id="_10_9" class="fil2" points="23.37,18.51 23,18.51 22.8,19.63 22.66,19.63 22.86,18.51 22.49,18.51 22.51,18.37 23.39,18.37 "/>
  <path id="_11_10" class="fil2" d="M25.08 18.37l-0.55 0.8 -0.09 0.46 -0.14 0 0.08 -0.46 -0.27 -0.8 0.17 0 0.18 0.57c0,0.01 0.01,0.04 0.02,0.08l0 0c0.01,-0.02 0.03,-0.05 0.05,-0.08l0.4 -0.57 0.15 0z"/>
  <polygon id="_12_11" class="fil2" points="27.04,18.51 26.55,18.51 26.47,18.94 26.93,18.94 26.9,19.08 26.45,19.08 26.35,19.63 26.2,19.63 26.43,18.37 27.07,18.37 "/>
  <polygon id="_13_12" class="fil2" points="28.25,18.37 28.23,18.5 28.1,18.5 27.93,19.51 28.05,19.51 28.03,19.63 27.63,19.63 27.66,19.51 27.78,19.51 27.96,18.5 27.83,18.5 27.86,18.37 "/>
  <path id="_14" class="fil2" d="M29.93 19.63l-0.18 0 -0.48 -1c-0.01,-0.03 -0.02,-0.05 -0.02,-0.08l-0.01 0c0,0.03 -0.01,0.08 -0.02,0.17l-0.16 0.91 -0.15 0 0.22 -1.26 0.19 0 0.46 0.99c0.02,0.04 0.03,0.07 0.04,0.09l0 0c0,-0.04 0.01,-0.1 0.02,-0.19l0.16 -0.89 0.15 0 -0.22 1.26z"/>
  <path id="_15" class="fil2" d="M30.93 19.63l0.22 -1.26 0.35 0c0.45,0 0.63,0.21 0.56,0.62 -0.03,0.19 -0.12,0.35 -0.27,0.47 -0.14,0.12 -0.32,0.17 -0.53,0.17l-0.33 0zm0.35 -1.12l-0.18 0.99 0.19 0c0.17,0 0.3,-0.04 0.41,-0.13 0.11,-0.09 0.18,-0.22 0.2,-0.38 0.06,-0.32 -0.08,-0.48 -0.43,-0.48l-0.19 0z"/>
  <polygon id="_16" class="fil2" points="33.54,19.63 32.87,19.63 33.09,18.37 33.73,18.37 33.71,18.51 33.21,18.51 33.14,18.93 33.6,18.93 33.57,19.06 33.12,19.06 33.04,19.5 33.56,19.5 "/>
  <path id="_17" class="fil2" d="M35.36 19.63l-0.18 0 -0.15 -0.35c-0.01,-0.03 -0.03,-0.06 -0.04,-0.08 -0.01,-0.03 -0.03,-0.05 -0.05,-0.06 -0.01,-0.02 -0.03,-0.03 -0.05,-0.03 -0.02,-0.01 -0.05,-0.01 -0.07,-0.01l-0.13 0 -0.09 0.53 -0.15 0 0.22 -1.26 0.38 0c0.06,0 0.11,0.01 0.15,0.02 0.04,0.02 0.08,0.04 0.11,0.07 0.03,0.02 0.05,0.06 0.06,0.1 0.02,0.04 0.02,0.09 0.01,0.15 -0.01,0.04 -0.02,0.08 -0.04,0.12 -0.02,0.04 -0.05,0.07 -0.08,0.1 -0.03,0.03 -0.06,0.05 -0.1,0.07 -0.04,0.02 -0.08,0.04 -0.12,0.05l0 0c0.02,0.01 0.03,0.02 0.04,0.03 0.02,0.02 0.03,0.03 0.04,0.05 0.01,0.01 0.02,0.03 0.03,0.05 0.01,0.02 0.02,0.05 0.04,0.07l0.17 0.38zm-0.56 -1.12l-0.08 0.45 0.2 0c0.04,0 0.07,0 0.1,-0.01 0.04,-0.01 0.07,-0.03 0.09,-0.05 0.03,-0.02 0.05,-0.05 0.07,-0.08 0.02,-0.03 0.03,-0.06 0.04,-0.1 0.01,-0.07 0,-0.12 -0.04,-0.16 -0.04,-0.04 -0.1,-0.05 -0.18,-0.05l-0.2 0z"/>
  <polygon id="_18" class="fil2" points="36.72,19.19 36.24,19.19 36.26,19.08 36.74,19.08 "/>
  <g id="_1938114770432">
   <polygon class="fil3" points="17.85,6.66 19.75,8.56 17.85,10.46 "/>
   <polygon class="fil4" points="19.75,8.56 17.85,6.66 19.75,4.77 "/>
   <polygon class="fil4" points="19.75,12.35 17.85,10.46 19.75,8.56 "/>
   <polygon class="fil5" points="24.07,7.02 22.18,8.92 24.07,10.82 "/>
   <polygon class="fil6" points="22.18,8.92 24.07,7.02 22.18,5.13 "/>
   <polygon class="fil6" points="22.18,12.71 24.07,10.82 22.18,8.92 "/>
   <polygon class="fil3" points="20.28,3.23 22.18,5.13 20.28,7.02 "/>
   <polygon class="fil6" points="22.18,5.13 20.28,3.23 22.18,1.33 "/>
   <polygon class="fil5" points="22.18,8.92 20.28,7.02 22.18,5.13 "/>
   <polygon class="fil3" points="18.73,3.01 19.68,3.96 18.73,4.91 "/>
   <polygon class="fil5" points="21.45,8.95 20.45,9.95 21.45,10.95 "/>
  </g>
 </g>
</svg>
